<?xml version="1.0" encoding="UTF-8"?>
<svg width="455.89" height="714.79"  viewBox="0 0 4558.9 7147.9" xmlns="http://www.w3.org/2000/svg">

 <g  transform="translate(-1778.7 -350)" fill="#facc15">
  <path  d="m3077 7489c-254-18-487-78-647-166-252-140-434-320-545-543-53-108-71-161-90-280-60-378 48-690 290-835 102-61 202-87 330-87 173 0 300 49 417 160 70 66 109 125 144 217 23 62 25 81 22 165-3 77-9 107-32 157-50 110-144 174-233 157-75-14-144-111-127-179 3-13 33-50 66-80 66-62 68-76 16-115-43-32-154-33-215-2-65 34-127 102-169 186-34 70-39 88-42 172-5 113 18 201 79 294 110 171 259 257 499 290 149 20 364-27 555-122 146-73 258-151 362-251 173-167 276-357 327-602 31-150 35-347 33-1366-2-1016-2-1016-74-1092-139-147-199-321-174-504 15-107 41-176 102-278 51-85 71-109 162-192 31-29 57-59 57-68 0-25-66-45-151-45-92 0-196 20-283 55-76 30-115 34-75 7 121-80 222-145 292-187 136-83 204-164 233-277 27-106-8-219-111-356-98-130-248-234-411-285-180-57-395-73-564-42-41 7-76 12-78 10s102-69 386-249c128-80 218-156 264-224 27-39 32-57 36-122 4-67 1-84-27-154-35-88-37-111-16-184 21-69 73-122 119-122 53 0 83 33 141 154 45 95 63 122 117 172 143 133 281 191 485 201 119 6 193-5 306-49 164-63 293-175 379-330 52-93 91-138 120-138 66 0 129 72 136 157 4 46-1 62-39 139-38 76-43 94-43 153 0 82 22 134 91 217 128 153 390 259 668 270 61 3 125 7 143 10 65 10 20 22-105 29-157 8-307 22-393 36-213 36-393 125-528 261-113 115-163 202-182 320-25 161 45 282 269 463 90 73 204 206 188 221-2 3-47-23-99-59-155-103-307-134-400-80-46 27-48 55-4 82 96 60 209 226 262 387 33 100 38 269 11 347-26 73-75 165-131 245-99 142-90 10-76 1125 6 540 9 1034 5 1097-16 274-85 539-204 780-154 310-358 543-618 706-288 181-720 260-1226 223zm1103.2-579.33c0-70.491-57.144-127.64-127.64-127.64s-127.64 57.144-127.64 127.64 57.144 127.64 127.64 127.64 127.64-57.144 127.64-127.64zm-65.211 112.33m897-3698c51-35 95-94 108-146 23-85-23-207-103-271-62-50-84-55-52-12 37 48 55 115 55 204 0 92-26 155-88 217-23 23-42 44-42 46 0 14 85-13 122-38zm-744-1c-32-35-64-96-78-148-26-101-1-237 56-304 30-36 31-45 2-30-49 25-127 101-147 142-48 100-16 225 80 311 44 39 61 49 103 55 6 0-2-11-16-26z"/>
  <path d="m4018 6943c-14-57 42-102 61-50 15 39 3 67-29 67-18 0-29-6-32-17z"/>
 </g>
</svg>
